<svg width="33" height="32" viewBox="0 0 33 32" fill="none" xmlns="http://www.w3.org/2000/svg">
<g clip-path="url(#clip0_4533_43229)">
<path d="M17.9189 8.91273L18.9116 8.50498C19.7189 8.18353 20.7607 7.85788 21.9923 8.06488C24.5133 8.48862 26.2527 9.84992 27.2885 11.6555C27.6877 12.3514 27.3652 13.268 26.6183 13.5606C25.3759 14.0471 24.4999 15.2559 24.4999 16.6659C24.4999 18.1428 25.4615 19.3988 26.7963 19.8351C27.4873 20.0611 27.8756 20.8282 27.6487 21.5188C27.0601 23.3091 26.2115 24.961 25.2073 26.2943C24.2161 27.6107 23.0053 28.7054 21.6573 29.239C20.7784 29.5868 19.8337 29.457 18.9303 29.2328L18.3941 29.0901L17.5983 28.8589C17.2371 28.7545 16.8663 28.6636 16.4999 28.6636C16.1335 28.6636 15.7627 28.7545 15.4015 28.8589L14.6058 29.0901L14.0695 29.2328C13.1661 29.457 12.2214 29.5868 11.3425 29.239C9.64482 28.567 8.14738 26.999 7.01651 25.1504C5.86559 23.2689 4.9934 20.9363 4.6378 18.5026C4.33499 16.4299 4.49846 14.1039 5.45751 12.1351C6.44522 10.1074 8.25176 8.52814 11.0075 8.06488C12.1272 7.87666 13.0901 8.1287 13.8624 8.4176L14.3026 8.59214L15.0809 8.91274C15.6139 9.12157 16.0353 9.24454 16.4999 9.24454C16.9646 9.24454 17.386 9.12156 17.9189 8.91273ZM16.1903 3.68956C17.492 2.38782 19.4901 2.27535 19.9615 2.74676C20.4329 3.21816 20.3204 5.21624 19.0187 6.51799C17.7169 7.81974 15.7188 7.9322 15.2475 7.4608C14.776 6.9894 14.8885 4.99131 16.1903 3.68956Z" fill="white"/>
</g>
<defs>
<clipPath id="clip0_4533_43229">
<rect width="32" height="32" fill="white" transform="translate(0.5)"/>
</clipPath>
</defs>
</svg>
