<svg width="96" height="96" viewBox="0 0 96 96" fill="none" xmlns="http://www.w3.org/2000/svg">
<path d="M69.7308 95.405H25.674C11.4945 95.405 0 83.9102 0 69.731V25.674C0 11.4945 11.4948 0 25.674 0H69.731C83.9105 0 95.405 11.4948 95.405 25.674V69.731C95.405 83.9102 83.9102 95.405 69.7308 95.405Z" fill="url(#paint0_linear_4533_46264)"/>
<path fill-rule="evenodd" clip-rule="evenodd" d="M66.969 22.0602C60.4262 21.9271 54.4078 24.7689 48.8565 28.4709L55.5968 34.1544L56.1522 33.7862L56.1573 33.783L57.1589 33.2141L57.887 32.8013L58.4341 32.4904L58.7482 32.3115C111.15 -0.426868 30.2099 114.652 30.1445 42.8143C30.0862 21.5229 46.1434 36.2154 51.7801 41.8656C51.7123 41.6277 51.2154 39.763 52.4149 38.0867C53.8058 36.1434 56.1821 36.2619 56.3244 36.2715C48.4577 29.4624 39.1366 22.0606 28.5581 22.1927C3.03649 22.6555 30.2753 64.8233 42.6411 71.9609C48.9871 75.5963 54.1454 72.0962 63.6005 61.453C67.2993 57.2226 70.5416 52.4627 72.9204 47.7716C79.5313 34.8147 79.7976 22.2579 66.969 22.0602Z" fill="white"/>
<path d="M56.378 45.0254C58.606 45.0254 60.4122 43.2193 60.4122 40.9912C60.4122 38.7632 58.606 36.957 56.378 36.957C54.1499 36.957 52.3438 38.7632 52.3438 40.9912C52.3438 43.2193 54.1499 45.0254 56.378 45.0254Z" fill="white"/>
<defs>
<linearGradient id="paint0_linear_4533_46264" x1="-0.000171501" y1="47.7024" x2="95.4049" y2="47.7024" gradientUnits="userSpaceOnUse">
<stop stop-color="#D8245D"/>
<stop offset="1" stop-color="#93268F"/>
</linearGradient>
</defs>
</svg>
