<svg width="32" height="32" viewBox="0 0 32 32" fill="none" xmlns="http://www.w3.org/2000/svg">
<path d="M18.0013 29.1847C24.4164 28.2197 29.3346 22.6843 29.3346 16.0003C29.3346 8.63653 23.365 2.66699 16.0013 2.66699C8.6375 2.66699 2.66797 8.63653 2.66797 16.0003C2.66797 22.6843 7.58629 28.2197 14.0013 29.1847V20.0003H12.0013C10.8967 20.0003 10.0013 19.1049 10.0013 18.0003C10.0013 16.8958 10.8967 16.0003 12.0013 16.0003H14.0013V13.3337C14.0013 10.7563 16.0906 8.66699 18.668 8.66699H19.3346C20.4392 8.66699 21.3346 9.56242 21.3346 10.667C21.3346 11.7716 20.4392 12.667 19.3346 12.667H18.668C18.2998 12.667 18.0013 12.9655 18.0013 13.3337V16.0003H20.0013C21.1058 16.0003 22.0013 16.8958 22.0013 18.0003C22.0013 19.1049 21.1058 20.0003 20.0013 20.0003H18.0013V29.1847Z" fill="url(#paint0_linear_5761_59974)"/>
<defs>
<linearGradient id="paint0_linear_5761_59974" x1="16.0013" y1="2.66699" x2="16.0013" y2="29.1847" gradientUnits="userSpaceOnUse">
<stop stop-color="#1FA9FF"/>
<stop offset="1" stop-color="#0064E0"/>
</linearGradient>
</defs>
</svg>
