<svg width="57" height="57" viewBox="0 0 57 57" fill="none" xmlns="http://www.w3.org/2000/svg">
<path d="M41.6608 57H15.339C6.86743 57 0 50.1324 0 41.661V15.339C0 6.86743 6.86758 0 15.339 0H41.661C50.1326 0 57 6.86758 57 15.339V41.661C57 50.1324 50.1324 57 41.6608 57Z" fill="url(#paint0_linear_4466_41490)"/>
<path fill-rule="evenodd" clip-rule="evenodd" d="M40.0118 13.1804C36.1028 13.1009 32.507 14.7988 29.1904 17.0105L33.2174 20.4062L33.5492 20.1862L33.5523 20.1843L34.1507 19.8444L34.5857 19.5977L34.9126 19.412L35.1003 19.3051C66.408 -0.254521 18.0499 68.4996 18.0109 25.58C17.976 12.8594 27.5694 21.6375 30.9371 25.0133C30.8966 24.8711 30.5997 23.757 31.3164 22.7555C32.1474 21.5945 33.5671 21.6653 33.6521 21.671C28.9521 17.6029 23.3832 13.1807 17.0631 13.2596C1.8151 13.5361 18.089 38.7294 25.477 42.9938C29.2684 45.1657 32.3503 43.0746 37.9993 36.7158C40.2091 34.1883 42.1463 31.3445 43.5674 28.5418C47.5171 20.8007 47.6762 13.2985 40.0118 13.1804Z" fill="white"/>
<path d="M33.6856 26.9006C35.0168 26.9006 36.0959 25.8215 36.0959 24.4903C36.0959 23.1592 35.0168 22.0801 33.6856 22.0801C32.3545 22.0801 31.2754 23.1592 31.2754 24.4903C31.2754 25.8215 32.3545 26.9006 33.6856 26.9006Z" fill="white"/>
<defs>
<linearGradient id="paint0_linear_4466_41490" x1="-0.000102464" y1="28.4999" x2="57" y2="28.4999" gradientUnits="userSpaceOnUse">
<stop stop-color="#D8245D"/>
<stop offset="1" stop-color="#93268F"/>
</linearGradient>
</defs>
</svg>
